<?xml version="1.0" encoding="utf-8"?>
<!-- Generator: Adobe Illustrator 16.0.0, SVG Export Plug-In . SVG Version: 6.00 Build 0)  -->
<!DOCTYPE svg PUBLIC "-//W3C//DTD SVG 1.1//EN" "http://www.w3.org/Graphics/SVG/1.1/DTD/svg11.dtd">
<svg version="1.1" id="Layer_1" xmlns="http://www.w3.org/2000/svg" xmlns:xlink="http://www.w3.org/1999/xlink" x="0px" y="0px"
	 width="60.087px" height="60px" viewBox="0 0 60.087 60" enable-background="new 0 0 60.087 60" xml:space="preserve">
<g id="Mail" transform="translate(158.000000, 0.000000)">
	<path fill="#FFFFFF" d="M-158.771,30c0-16.568,13.451-30,30.043-30c16.593,0,30.043,13.432,30.043,30s-13.45,30-30.043,30
		C-145.321,60-158.771,46.568-158.771,30z"/>
	<path id="Shape_10_" fill="#333333" d="M-123.377,31.639L-111,20v20.576L-123.377,31.639z M-145,20l12.377,11.637L-145,40.576V20z
		 M-128,35.984l2.955-2.777L-111,42h-34l14.045-8.793L-128,35.984z M-112.02,20L-128,32.455L-143.98,20H-112.02z"/>
	<path id="reflec_2_" fill-opacity="0.08" d="M-98.686,30c0,16.568-13.45,30-30.043,30c-6.153,0-11.875-1.848-16.639-5.018
		l34.425-49.163C-103.509,11.281-98.686,20.078-98.686,30z"/>
</g>
</svg>
