<?xml version="1.0" encoding="utf-8"?>
<!-- Generator: Adobe Illustrator 16.0.0, SVG Export Plug-In . SVG Version: 6.00 Build 0)  -->
<!DOCTYPE svg PUBLIC "-//W3C//DTD SVG 1.1//EN" "http://www.w3.org/Graphics/SVG/1.1/DTD/svg11.dtd">
<svg version="1.1" id="Layer_1" xmlns="http://www.w3.org/2000/svg" xmlns:xlink="http://www.w3.org/1999/xlink" x="0px" y="0px"
	 width="60.087px" height="60px" viewBox="0 0 60.087 60" enable-background="new 0 0 60.087 60" xml:space="preserve">
<g id="Facebook" transform="translate(79.000000, 0.000000)">
	<path fill="#3B5998" d="M-78.886,30c0-16.568,13.451-30,30.043-30c16.592,0,30.043,13.432,30.043,30S-32.25,60-48.842,60
		C-65.435,60-78.886,46.568-78.886,30z"/>
	<path id="Path_18_" fill="#FFFFFF" d="M-46.33,46.32V29.998h4.506l0.597-5.625h-5.103l0.008-2.815c0-1.467,0.139-2.253,2.246-2.253
		h2.816V13.68h-4.506c-5.413,0-7.318,2.729-7.318,7.317v3.377h-3.374v5.625h3.374V46.32H-46.33z"/>
	<path id="reflec_28_" fill-opacity="0.08" d="M-18.799,30c0,16.568-13.451,30-30.043,30c-6.154,0-11.875-1.848-16.639-5.018
		l34.425-49.163C-23.623,11.281-18.799,20.078-18.799,30z"/>
</g>
</svg>
