<?xml version="1.0" encoding="utf-8"?>
<!-- Generator: Adobe Illustrator 16.0.0, SVG Export Plug-In . SVG Version: 6.00 Build 0)  -->
<!DOCTYPE svg PUBLIC "-//W3C//DTD SVG 1.1//EN" "http://www.w3.org/Graphics/SVG/1.1/DTD/svg11.dtd">
<svg version="1.1" id="Layer_1" xmlns="http://www.w3.org/2000/svg" xmlns:xlink="http://www.w3.org/1999/xlink" x="0px" y="0px"
	 width="60.087px" height="60px" viewBox="0 0 60.087 60" enable-background="new 0 0 60.087 60" xml:space="preserve">
<g id="Github" transform="translate(237.000000, 0.000000)">
	<path fill="#333333" d="M-237.658,30c0-16.568,13.451-30,30.043-30c16.593,0,30.044,13.432,30.044,30s-13.451,30-30.044,30
		C-224.207,60-237.658,46.568-237.658,30z"/>
	<path id="Path_20_" fill="#FFFFFF" d="M-219.478,31.936c1.412,2.516,4.134,4.08,8.726,4.513c-0.656,0.488-1.443,1.415-1.551,2.485
		c-0.824,0.523-2.481,0.696-3.77,0.297c-1.805-0.559-2.496-4.066-5.199-3.566c-0.585,0.107-0.469,0.486,0.037,0.809
		c0.824,0.523,1.6,1.178,2.198,2.57c0.459,1.07,1.425,2.982,4.479,2.982c1.212,0,2.061-0.143,2.061-0.143s0.023,2.731,0.023,3.793
		c0,1.225-1.684,1.57-1.684,2.158c0,0.234,0.557,0.256,1.005,0.256c0.885,0,2.727-0.725,2.727-1.998
		c0-1.012,0.017-4.411,0.017-5.006c0-1.301,0.71-1.712,0.71-1.712s0.088,6.941-0.17,7.872c-0.302,1.094-0.848,0.938-0.848,1.427
		c0,0.726,2.217,0.178,2.952-1.415c0.568-1.241,0.32-8.051,0.32-8.051l0.606-0.012c0,0,0.034,3.117,0.014,4.542
		c-0.021,1.476-0.123,3.342,0.77,4.222c0.587,0.578,2.489,1.594,2.489,0.666c0-0.539-1.043-0.982-1.043-2.441v-6.715
		c0.832,0,0.707,2.208,0.707,2.208l0.061,4.103c0,0-0.183,1.494,1.648,2.12c0.645,0.222,2.027,0.281,2.092-0.091
		c0.065-0.373-1.664-0.928-1.68-2.085c-0.01-0.706,0.032-1.118,0.032-4.186s-0.42-4.202-1.883-5.105
		c4.515-0.456,7.31-1.552,8.671-4.487c0.106,0.003,0.555-1.372,0.496-1.371c0.306-1.108,0.471-2.419,0.504-3.972
		c-0.008-4.209-2.062-5.698-2.456-6.397c0.582-3.187-0.097-4.638-0.412-5.135c-1.163-0.406-4.048,1.044-5.622,2.067
		c-2.57-0.737-7.999-0.666-10.035,0.19c-3.757-2.64-5.744-2.235-5.744-2.235s-1.285,2.259-0.339,5.565
		c-1.236,1.545-2.157,2.64-2.157,5.539c0,1.633,0.196,3.096,0.638,4.372C-220.143,30.568-219.496,31.936-219.478,31.936z"/>
	<path id="reflec_30_" fill-opacity="0.08" d="M-177.57,30c0,16.568-13.451,30-30.044,30c-6.154,0-11.875-1.848-16.639-5.018
		l34.425-49.163C-182.395,11.281-177.57,20.078-177.57,30z"/>
</g>
</svg>
