<?xml version="1.0" encoding="utf-8"?>
<!-- Generator: Adobe Illustrator 16.0.0, SVG Export Plug-In . SVG Version: 6.00 Build 0)  -->
<!DOCTYPE svg PUBLIC "-//W3C//DTD SVG 1.1//EN" "http://www.w3.org/Graphics/SVG/1.1/DTD/svg11.dtd">
<svg version="1.1" id="Layer_1" xmlns="http://www.w3.org/2000/svg" xmlns:xlink="http://www.w3.org/1999/xlink" x="0px" y="0px"
	 width="60.087px" height="60px" viewBox="0 0 60.087 60" enable-background="new 0 0 60.087 60" xml:space="preserve">
<g id="Instagram" transform="translate(553.000000, 0.000000)">
	<path fill="#517FA4" d="M-553.201,30c0-16.568,13.451-30,30.044-30c16.592,0,30.043,13.432,30.043,30s-13.451,30-30.043,30
		C-539.75,60-553.201,46.568-553.201,30z"/>
	<path id="Path_25_" fill="#FFFFFF" d="M-535.129,27.198c0,4.515,0,9.03,0,13.545c0,0.649,0.563,1.208,1.214,1.208
		c7.17,0,14.34,0,21.51,0c0.656,0,1.217-0.558,1.217-1.212c0-4.51,0-9.019,0-13.528v-0.094h-2.917
		c0.412,1.314,0.538,2.651,0.377,4.014c-0.162,1.363-0.602,2.631-1.318,3.803c-0.717,1.173-1.646,2.145-2.783,2.918
		c-2.949,2.005-6.832,2.182-9.961,0.428c-1.582-0.886-2.824-2.121-3.689-3.712c-1.292-2.374-1.498-4.867-0.74-7.452
		c-0.968,0-1.932,0-2.908,0V27.198z M-510.459,45.172c-0.157,0.033-0.316,0.057-0.476,0.083h-24.446
		c-0.064-0.011-0.13-0.022-0.195-0.03c-1.344-0.173-2.474-1.197-2.773-2.52c-0.034-0.154-0.057-0.311-0.085-0.465V17.762
		c0.011-0.057,0.022-0.114,0.03-0.171c0.192-1.37,1.194-2.458,2.548-2.766c0.146-0.033,0.294-0.053,0.442-0.08h24.514
		c0.057,0.01,0.112,0.022,0.17,0.03c1.387,0.189,2.517,1.251,2.784,2.618c0.026,0.133,0.044,0.268,0.065,0.401v24.411
		c-0.022,0.137-0.041,0.274-0.067,0.41C-508.192,43.868-509.212,44.907-510.459,45.172z M-529.349,29.906
		c-0.049,3.459,2.725,6.201,6.049,6.273c3.46,0.073,6.258-2.687,6.331-6.043c0.074-3.461-2.723-6.321-6.188-6.319
		C-526.546,23.815-529.301,26.538-529.349,29.906z M-512.363,22.57c0.647-0.016,1.174-0.57,1.174-1.217
		c0.001-0.963,0.001-1.926,0-2.89c0-0.691-0.547-1.241-1.238-1.241c-0.962,0-1.924,0-2.886,0c-0.689,0.001-1.239,0.552-1.239,1.243
		c0,0.955-0.003,1.91,0.004,2.865c0.001,0.143,0.027,0.291,0.073,0.426c0.173,0.508,0.639,0.82,1.21,0.823
		c0.464,0.001,0.928,0,1.393,0C-513.37,22.572-512.866,22.582-512.363,22.57z"/>
	<path id="reflec_34_" fill-opacity="0.08" d="M-493.114,30c0,16.568-13.451,30-30.043,30c-6.154,0-11.876-1.848-16.64-5.018
		l34.425-49.163C-497.938,11.281-493.114,20.078-493.114,30z"/>
</g>
</svg>
