<?xml version="1.0" encoding="utf-8"?>
<!-- Generator: Adobe Illustrator 16.0.0, SVG Export Plug-In . SVG Version: 6.00 Build 0)  -->
<!DOCTYPE svg PUBLIC "-//W3C//DTD SVG 1.1//EN" "http://www.w3.org/Graphics/SVG/1.1/DTD/svg11.dtd">
<svg version="1.1" id="Layer_1" xmlns="http://www.w3.org/2000/svg" xmlns:xlink="http://www.w3.org/1999/xlink" x="0px" y="0px"
	 width="60.087px" height="60px" viewBox="0 0 60.087 60" enable-background="new 0 0 60.087 60" xml:space="preserve">
<g id="LinkedIN" transform="translate(316.000000, 0.500000)">
	<path fill="#007BB6" d="M-316.543,30c0-16.568,13.45-30,30.043-30s30.043,13.432,30.043,30s-13.45,30-30.043,30
		S-316.543,46.568-316.543,30z"/>
	<path id="Path_9_" fill="#FFFFFF" d="M-294.157,23.71h-6.799v20.427h6.799V23.71z"/>
	<path id="Path_10_" fill="#FFFFFF" d="M-293.71,17.391c-0.044-2.002-1.477-3.528-3.802-3.528c-2.326,0-3.847,1.526-3.847,3.528
		c0,1.961,1.476,3.531,3.758,3.531h0.044C-295.187,20.922-293.71,19.352-293.71,17.391z"/>
	<path id="Path_11_" fill="#FFFFFF" d="M-269.639,32.425c0-6.274-3.354-9.195-7.828-9.195c-3.609,0-5.226,1.983-6.128,3.374V23.71
		h-6.8c0.09,1.917,0,20.427,0,20.427h6.8V32.729c0-0.61,0.044-1.22,0.224-1.657c0.491-1.219,1.61-2.482,3.488-2.482
		c2.461,0,3.445,1.873,3.445,4.619v10.928h6.798L-269.639,32.425z"/>
	<path id="reflec_22_" fill-opacity="0.08" d="M-256.457,30c0,16.568-13.45,30-30.043,30c-6.153,0-11.875-1.848-16.639-5.018
		l34.425-49.163C-261.28,11.281-256.457,20.078-256.457,30z"/>
</g>
</svg>
