<?xml version="1.0" encoding="utf-8"?>
<!-- Generator: Adobe Illustrator 16.0.0, SVG Export Plug-In . SVG Version: 6.00 Build 0)  -->
<!DOCTYPE svg PUBLIC "-//W3C//DTD SVG 1.1//EN" "http://www.w3.org/Graphics/SVG/1.1/DTD/svg11.dtd">
<svg version="1.1" id="Layer_1" xmlns="http://www.w3.org/2000/svg" xmlns:xlink="http://www.w3.org/1999/xlink" x="0px" y="0px"
	 width="60.087px" height="60px" viewBox="0 0 60.087 60" enable-background="new 0 0 60.087 60" xml:space="preserve">
<g id="Youtube" transform="translate(316.000000, 0.000000)">
	<path id="YouTube" fill="#CD332D" d="M-316.543,30c0-16.568,13.45-30,30.043-30s30.043,13.432,30.043,30s-13.45,30-30.043,30
		S-316.543,46.568-316.543,30z"/>
	<path id="Path_21_" fill="#FFFFFF" d="M-294.596,44.884V34.6h2.037v-1.748h-6.045V34.6h2.037v10.284H-294.596z M-272.973,30.428
		c1.441,1.434,1.457,8.513,1.457,8.554c0,0-0.012,7.117-1.457,8.556C-274.408,48.969-286.506,49-286.506,49
		s-12.096-0.031-13.535-1.462c-1.439-1.435-1.443-8.501-1.443-8.556c0-0.041,0.004-7.12,1.443-8.554
		c1.439-1.432,13.535-1.451,13.535-1.45C-286.506,28.978-274.408,28.997-272.973,30.428z M-288.545,43.908v0.976h1.747v-8.878
		h-1.747v6.744c-0.167,0.192-0.345,0.35-0.543,0.475c-0.196,0.125-0.361,0.188-0.488,0.188c-0.163,0-0.282-0.046-0.359-0.142
		c-0.07-0.093-0.107-0.245-0.107-0.456v-6.809h-1.747v7.422c0,0.531,0.104,0.924,0.306,1.189c0.208,0.267,0.508,0.396,0.914,0.396
		c0.329,0,0.666-0.092,1.016-0.283C-289.204,44.543-288.87,44.27-288.545,43.908z M-282.057,44.996c0.518,0,0.915-0.165,1.188-0.501
		c0.274-0.336,0.412-0.817,0.412-1.445v-4.926c0-0.727-0.145-1.28-0.439-1.66c-0.29-0.376-0.711-0.565-1.267-0.565
		c-0.271,0-0.539,0.07-0.806,0.211c-0.263,0.14-0.512,0.348-0.749,0.616v-3.874h-1.767v12.032h1.767v-0.681
		c0.228,0.273,0.48,0.472,0.747,0.602C-282.704,44.934-282.4,44.996-282.057,44.996z M-277.739,42.33v-1.672h3.343v-2.264
		c0-0.842-0.214-1.486-0.644-1.935c-0.429-0.448-1.045-0.674-1.845-0.674c-0.784,0-1.42,0.242-1.914,0.727
		c-0.494,0.483-0.743,1.114-0.743,1.882v3.986c0,0.855,0.228,1.527,0.677,2.014c0.449,0.489,1.067,0.731,1.85,0.731
		c0.87,0,1.525-0.228,1.961-0.686c0.44-0.463,0.658-1.148,0.658-2.06v-0.455h-1.798v0.404c0,0.523-0.061,0.859-0.175,1.013
		c-0.115,0.153-0.317,0.229-0.607,0.229c-0.278,0-0.475-0.088-0.592-0.269C-277.683,43.121-277.739,42.799-277.739,42.33z
		 M-282.441,37.539c0.124,0.154,0.185,0.383,0.185,0.682v4.584c0,0.286-0.053,0.486-0.153,0.611c-0.1,0.127-0.257,0.189-0.47,0.189
		c-0.149,0-0.288-0.033-0.422-0.096c-0.136-0.062-0.274-0.17-0.416-0.313v-5.531c0.12-0.122,0.239-0.213,0.361-0.271
		c0.121-0.061,0.245-0.087,0.37-0.087C-282.751,37.308-282.568,37.385-282.441,37.539z M-277.559,37.584
		c0.121-0.166,0.321-0.244,0.6-0.244c0.265,0,0.463,0.078,0.58,0.244c0.122,0.156,0.185,0.424,0.185,0.796v0.896h-1.545V38.38
		C-277.739,38.008-277.681,37.74-277.559,37.584z"/>
	<path id="Path_22_" fill="#FFFFFF" d="M-297.482,12h2.231l1.439,5.298h0.139l1.369-5.298h2.253l-2.578,7.755v5.499h-2.216v-5.251
		L-297.482,12z M-286.961,15.229c0.813,0,1.482,0.237,2.004,0.71c0.518,0.473,0.778,1.083,0.778,1.828v5.051
		c0,0.836-0.255,1.491-0.763,1.968c-0.514,0.476-1.214,0.714-2.109,0.714c-0.859,0-1.549-0.247-2.066-0.736
		c-0.514-0.492-0.774-1.153-0.774-1.984l-0.001-5.067c0-0.759,0.266-1.362,0.797-1.81
		C-288.566,15.454-287.853,15.229-286.961,15.229z M-287.055,23.808c0.267,0,0.477-0.076,0.635-0.224
		c0.157-0.151,0.235-0.357,0.235-0.618v-5.327c0-0.214-0.08-0.386-0.241-0.519c-0.16-0.131-0.37-0.196-0.629-0.196
		c-0.241,0-0.436,0.065-0.587,0.196c-0.148,0.132-0.225,0.305-0.225,0.519v5.327c-0.001,0.268,0.072,0.474,0.211,0.622
		C-287.516,23.735-287.315,23.808-287.055,23.808z M-278.936,25.254v-1.08c-0.358,0.397-0.737,0.703-1.131,0.91
		c-0.393,0.208-0.773,0.312-1.142,0.312c-0.459,0-0.798-0.146-1.029-0.437c-0.229-0.292-0.345-0.728-0.345-1.311v-8.172h1.964v7.497
		c0,0.232,0.046,0.399,0.128,0.502c0.08,0.104,0.216,0.156,0.4,0.156c0.143,0,0.327-0.07,0.549-0.206
		c0.219-0.137,0.423-0.312,0.605-0.527v-7.422h1.969v9.778H-278.936z"/>
	<path id="reflec_31_" fill-opacity="0.08" d="M-256.457,30c0,16.568-13.45,30-30.043,30c-6.153,0-11.875-1.848-16.639-5.018
		l34.425-49.163C-261.28,11.281-256.457,20.078-256.457,30z"/>
</g>
</svg>
